<?xml version="1.0" encoding="UTF-8" standalone="no"?>
<!-- Generator: Adobe Illustrator 19.0.0, SVG Export Plug-In . SVG Version: 6.00 Build 0)  -->

<svg
   xmlns:dc="http://purl.org/dc/elements/1.1/"
   xmlns:cc="http://creativecommons.org/ns#"
   xmlns:rdf="http://www.w3.org/1999/02/22-rdf-syntax-ns#"
   xmlns:svg="http://www.w3.org/2000/svg"
   xmlns="http://www.w3.org/2000/svg"
   xmlns:sodipodi="http://sodipodi.sourceforge.net/DTD/sodipodi-0.dtd"
   xmlns:inkscape="http://www.inkscape.org/namespaces/inkscape"
   version="1.1"
   id="Capa_1"
   x="0px"
   y="0px"
   viewBox="0 0 58 58"
   xml:space="preserve"
   sodipodi:docname="icon_1.svg"
   inkscape:version="0.92.1 r15371"
   style="enable-background:new 0 0 58 58;"><metadata
     id="metadata53"><rdf:RDF><cc:Work
         rdf:about=""><dc:format>image/svg+xml</dc:format><dc:type
           rdf:resource="http://purl.org/dc/dcmitype/StillImage" /></cc:Work></rdf:RDF></metadata><defs
     id="defs51" /><sodipodi:namedview
     pagecolor="#ffffff"
     bordercolor="#666666"
     borderopacity="1"
     objecttolerance="10"
     gridtolerance="10"
     guidetolerance="10"
     inkscape:pageopacity="0"
     inkscape:pageshadow="2"
     inkscape:window-width="1366"
     inkscape:window-height="705"
     id="namedview49"
     showgrid="false"
     inkscape:zoom="4.0689655"
     inkscape:cx="9.4817672"
     inkscape:cy="-2.6016945"
     inkscape:window-x="-8"
     inkscape:window-y="-8"
     inkscape:window-maximized="1"
     inkscape:current-layer="Capa_1" /><g
     id="g105"
     transform="matrix(0.68965517,0,0,0.65217391,9,10.086957)"><rect
       id="rect2"
       height="46"
       width="42"
       style="fill:#ef6129"
       y="6"
       x="8" /><g
       id="g8"><rect
         id="rect4"
         height="38"
         width="4"
         style="fill:#ebba16"
         y="10"
         x="50" /><rect
         id="rect6"
         height="38"
         width="4"
         style="fill:#ebba16"
         y="10"
         x="4" /></g><g
       id="g14"><rect
         id="rect10"
         height="30"
         width="4"
         style="fill:#efce4a"
         y="14"
         x="54" /><rect
         id="rect12"
         height="30"
         width="4"
         style="fill:#efce4a"
         y="14"
         x="0" /></g><path
       id="path16"
       d="m 43.649,12.24 c -0.222,-0.19 -0.515,-0.273 -0.805,-0.228 l -19,3 C 23.358,15.089 23,15.508 23,16 V 19.286 22 35.68 C 21.831,34.642 20.246,34 18.5,34 14.916,34 12,36.691 12,40 c 0,3.309 2.916,6 6.5,6 3.533,0 6.411,-2.617 6.492,-5.861 C 24.993,40.126 25,40.115 25,40.102 V 22.854 L 42,20.17 v 9.511 C 40.831,28.642 39.246,28 37.5,28 33.916,28 31,30.691 31,34 c 0,3.309 2.916,6 6.5,6 3.584,0 6.5,-2.691 6.5,-6 V 19 14 13 c 0,-0.292 -0.128,-0.57 -0.351,-0.76 z"
       style="fill:#ffffff"
       inkscape:connector-curvature="0" /></g><g
     id="g18" /><g
     id="g20" /><g
     id="g22" /><g
     id="g24" /><g
     id="g26" /><g
     id="g28" /><g
     id="g30" /><g
     id="g32" /><g
     id="g34" /><g
     id="g36" /><g
     id="g38" /><g
     id="g40" /><g
     id="g42" /><g
     id="g44" /><g
     id="g46" /></svg>