<?xml version="1.0" encoding="UTF-8" standalone="no"?>
<!-- Generator: Adobe Illustrator 19.0.0, SVG Export Plug-In . SVG Version: 6.00 Build 0)  -->

<svg
   xmlns:dc="http://purl.org/dc/elements/1.1/"
   xmlns:cc="http://creativecommons.org/ns#"
   xmlns:rdf="http://www.w3.org/1999/02/22-rdf-syntax-ns#"
   xmlns:svg="http://www.w3.org/2000/svg"
   xmlns="http://www.w3.org/2000/svg"
   xmlns:sodipodi="http://sodipodi.sourceforge.net/DTD/sodipodi-0.dtd"
   xmlns:inkscape="http://www.inkscape.org/namespaces/inkscape"
   version="1.1"
   id="Capa_1"
   x="0px"
   y="0px"
   viewBox="0 0 58 58"
   xml:space="preserve"
   sodipodi:docname="icon_3.svg"
   inkscape:version="0.92.1 r15371"
   style="enable-background:new 0 0 58 58;"><metadata
     id="metadata53"><rdf:RDF><cc:Work
         rdf:about=""><dc:format>image/svg+xml</dc:format><dc:type
           rdf:resource="http://purl.org/dc/dcmitype/StillImage" /><dc:title></dc:title></cc:Work></rdf:RDF></metadata><defs
     id="defs51" /><sodipodi:namedview
     pagecolor="#ffffff"
     bordercolor="#666666"
     borderopacity="1"
     objecttolerance="10"
     gridtolerance="10"
     guidetolerance="10"
     inkscape:pageopacity="0"
     inkscape:pageshadow="2"
     inkscape:window-width="1360"
     inkscape:window-height="705"
     id="namedview49"
     showgrid="false"
     inkscape:zoom="4.0689655"
     inkscape:cx="9.4817672"
     inkscape:cy="-2.6016945"
     inkscape:window-x="1358"
     inkscape:window-y="-8"
     inkscape:window-maximized="1"
     inkscape:current-layer="Capa_1" /><g
     id="g18" /><g
     id="g20" /><g
     id="g22" /><g
     id="g24" /><g
     id="g26" /><g
     id="g28" /><g
     id="g30" /><g
     id="g32" /><g
     id="g34" /><g
     id="g36" /><g
     id="g38" /><g
     id="g40" /><g
     id="g42" /><g
     id="g44" /><g
     id="g46" /><g
     transform="matrix(0.66666667,0,0,0.625,9,10.25)"
     id="g12"><rect
       x="5"
       y="10"
       width="3"
       height="40"
       id="rect2" /><rect
       x="52"
       y="10"
       width="3"
       height="40"
       id="rect4" /><rect
       x="57"
       y="14"
       width="3"
       height="32"
       id="rect6" /><rect
       x="0"
       y="14"
       width="3"
       height="32"
       id="rect8" /><path
       inkscape:connector-curvature="0"
       d="M 10,54 H 50 V 6 H 10 Z m 9.5,-18 c 1.746,0 3.331,0.642 4.5,1.68 V 24 21.286 18 c 0,-0.492 0.358,-0.911 0.844,-0.987 l 19,-3 c 0.29,-0.047 0.583,0.037 0.805,0.228 C 44.872,14.43 45,14.708 45,15 v 1 5 15 c 0,3.309 -2.916,6 -6.5,6 -3.584,0 -6.5,-2.691 -6.5,-6 0,-3.309 2.916,-6 6.5,-6 1.746,0 3.331,0.642 4.5,1.68 v -9.51 l -17,2.684 v 17.248 c 0,0.013 -0.007,0.025 -0.008,0.038 C 25.911,45.383 23.033,48 19.5,48 15.916,48 13,45.309 13,42 c 0,-3.309 2.916,-6 6.5,-6 z"
       id="path10" /></g></svg>