<?xml version="1.0" encoding="UTF-8" standalone="no"?>
<!-- Generator: Adobe Illustrator 19.0.0, SVG Export Plug-In . SVG Version: 6.00 Build 0)  -->

<svg
   xmlns:dc="http://purl.org/dc/elements/1.1/"
   xmlns:cc="http://creativecommons.org/ns#"
   xmlns:rdf="http://www.w3.org/1999/02/22-rdf-syntax-ns#"
   xmlns:svg="http://www.w3.org/2000/svg"
   xmlns="http://www.w3.org/2000/svg"
   xmlns:sodipodi="http://sodipodi.sourceforge.net/DTD/sodipodi-0.dtd"
   xmlns:inkscape="http://www.inkscape.org/namespaces/inkscape"
   version="1.1"
   id="Capa_1"
   x="0px"
   y="0px"
   viewBox="0 0 58 58"
   xml:space="preserve"
   sodipodi:docname="icon_4.svg"
   inkscape:version="0.92.1 r15371"
   style="enable-background:new 0 0 58 58;"><metadata
     id="metadata53"><rdf:RDF><cc:Work
         rdf:about=""><dc:format>image/svg+xml</dc:format><dc:type
           rdf:resource="http://purl.org/dc/dcmitype/StillImage" /><dc:title></dc:title></cc:Work></rdf:RDF></metadata><defs
     id="defs51"><linearGradient
       id="SVGID_1_"
       gradientUnits="userSpaceOnUse"
       x1="-48.924999"
       y1="652.59253"
       x2="-47.748501"
       y2="651.7229"
       gradientTransform="matrix(300.1379,0,0,-406.069,14763.69,265077)"><stop
         offset="0"
         style="stop-color:#D4E1F4"
         id="stop14" /><stop
         offset="0.1717"
         style="stop-color:#D4E1F4"
         id="stop16" /><stop
         offset="0.2"
         style="stop-color:#D4E1F4"
         id="stop18" /><stop
         offset="0.2001"
         style="stop-color:#DAE4F4"
         id="stop20" /><stop
         offset="0.2007"
         style="stop-color:#EBEBF4"
         id="stop22" /><stop
         offset="0.2014"
         style="stop-color:#F6F1F4"
         id="stop24" /><stop
         offset="0.2023"
         style="stop-color:#FDF4F4"
         id="stop26" /><stop
         offset="0.205"
         style="stop-color:#FFF5F4"
         id="stop28" /><stop
         offset="0.2522"
         style="stop-color:#FFF5F4"
         id="stop30" /><stop
         offset="0.26"
         style="stop-color:#FFF5F4"
         id="stop32" /><stop
         offset="0.26"
         style="stop-color:#D4E1F4"
         id="stop34" /><stop
         offset="0.3974"
         style="stop-color:#D4E1F4"
         id="stop36" /><stop
         offset="0.42"
         style="stop-color:#D4E1F4"
         id="stop38" /><stop
         offset="0.4201"
         style="stop-color:#DAE4F4"
         id="stop40" /><stop
         offset="0.4207"
         style="stop-color:#EBEBF4"
         id="stop42" /><stop
         offset="0.4214"
         style="stop-color:#F6F1F4"
         id="stop44" /><stop
         offset="0.4223"
         style="stop-color:#FDF4F4"
         id="stop46" /><stop
         offset="0.425"
         style="stop-color:#FFF5F4"
         id="stop48" /><stop
         offset="0.4894"
         style="stop-color:#FFF5F4"
         id="stop50" /><stop
         offset="0.5"
         style="stop-color:#FFF5F4"
         id="stop52" /><stop
         offset="0.5"
         style="stop-color:#F9F2F4"
         id="stop54" /><stop
         offset="0.5001"
         style="stop-color:#E8EBF4"
         id="stop56" /><stop
         offset="0.5003"
         style="stop-color:#DDE5F4"
         id="stop58" /><stop
         offset="0.5005"
         style="stop-color:#D6E2F4"
         id="stop60" /><stop
         offset="0.501"
         style="stop-color:#D4E1F4"
         id="stop62" /><stop
         offset="0.7062"
         style="stop-color:#D4E1F4"
         id="stop64" /><stop
         offset="0.74"
         style="stop-color:#D4E1F4"
         id="stop66" /><stop
         offset="0.741"
         style="stop-color:#FFF5F4"
         id="stop68" /><stop
         offset="0.8346"
         style="stop-color:#FFF5F4"
         id="stop70" /><stop
         offset="0.85"
         style="stop-color:#FFF5F4"
         id="stop72" /><stop
         offset="0.851"
         style="stop-color:#D4E1F4"
         id="stop74" /></linearGradient></defs><sodipodi:namedview
     pagecolor="#ffffff"
     bordercolor="#666666"
     borderopacity="1"
     objecttolerance="10"
     gridtolerance="10"
     guidetolerance="10"
     inkscape:pageopacity="0"
     inkscape:pageshadow="2"
     inkscape:window-width="1360"
     inkscape:window-height="705"
     id="namedview49"
     showgrid="false"
     inkscape:zoom="4.0689655"
     inkscape:cx="9.4817672"
     inkscape:cy="-2.6016945"
     inkscape:window-x="1358"
     inkscape:window-y="-8"
     inkscape:window-maximized="1"
     inkscape:current-layer="Capa_1" /><g
     id="g18" /><g
     id="g20" /><g
     id="g22" /><g
     id="g24" /><g
     id="g26" /><g
     id="g28" /><g
     id="g30" /><g
     id="g32" /><g
     id="g34" /><g
     id="g36" /><g
     id="g38" /><g
     id="g40" /><g
     id="g42" /><g
     id="g44" /><g
     id="g46" /><g
     transform="matrix(0.078125,0,0,0.07080064,9.0000001,10.875071)"
     id="g115"><rect
       x="79.447998"
       y="52.966"
       style="fill:#ffffff"
       width="176.552"
       height="406.069"
       id="rect2" /><rect
       x="256"
       y="52.966"
       style="fill:#a4c2f7"
       width="176.552"
       height="406.069"
       id="rect4" /><rect
       x="441.379"
       y="88.276001"
       style="fill:#e3e7f2"
       width="17.655001"
       height="335.448"
       id="rect6" /><rect
       x="476.69"
       y="123.586"
       style="fill:#a4c2f7"
       width="17.655001"
       height="264.828"
       id="rect8" /><rect
       x="52.966"
       y="88.276001"
       style="fill:#e3e7f2"
       width="17.655001"
       height="335.448"
       id="rect10" /><rect
       x="17.655001"
       y="123.586"
       style="fill:#a4c2f7"
       width="17.655001"
       height="264.828"
       id="rect12" /><linearGradient
       id="linearGradient262"
       gradientUnits="userSpaceOnUse"
       x1="-48.924999"
       y1="652.59253"
       x2="-47.748501"
       y2="651.7229"
       gradientTransform="matrix(300.1379,0,0,-406.069,14763.69,265077)"><stop
         offset="0"
         style="stop-color:#D4E1F4"
         id="stop200" /><stop
         offset="0.1717"
         style="stop-color:#D4E1F4"
         id="stop202" /><stop
         offset="0.2"
         style="stop-color:#D4E1F4"
         id="stop204" /><stop
         offset="0.2001"
         style="stop-color:#DAE4F4"
         id="stop206" /><stop
         offset="0.2007"
         style="stop-color:#EBEBF4"
         id="stop208" /><stop
         offset="0.2014"
         style="stop-color:#F6F1F4"
         id="stop210" /><stop
         offset="0.2023"
         style="stop-color:#FDF4F4"
         id="stop212" /><stop
         offset="0.205"
         style="stop-color:#FFF5F4"
         id="stop214" /><stop
         offset="0.2522"
         style="stop-color:#FFF5F4"
         id="stop216" /><stop
         offset="0.26"
         style="stop-color:#FFF5F4"
         id="stop218" /><stop
         offset="0.26"
         style="stop-color:#D4E1F4"
         id="stop220" /><stop
         offset="0.3974"
         style="stop-color:#D4E1F4"
         id="stop222" /><stop
         offset="0.42"
         style="stop-color:#D4E1F4"
         id="stop224" /><stop
         offset="0.4201"
         style="stop-color:#DAE4F4"
         id="stop226" /><stop
         offset="0.4207"
         style="stop-color:#EBEBF4"
         id="stop228" /><stop
         offset="0.4214"
         style="stop-color:#F6F1F4"
         id="stop230" /><stop
         offset="0.4223"
         style="stop-color:#FDF4F4"
         id="stop232" /><stop
         offset="0.425"
         style="stop-color:#FFF5F4"
         id="stop234" /><stop
         offset="0.4894"
         style="stop-color:#FFF5F4"
         id="stop236" /><stop
         offset="0.5"
         style="stop-color:#FFF5F4"
         id="stop238" /><stop
         offset="0.5"
         style="stop-color:#F9F2F4"
         id="stop240" /><stop
         offset="0.5001"
         style="stop-color:#E8EBF4"
         id="stop242" /><stop
         offset="0.5003"
         style="stop-color:#DDE5F4"
         id="stop244" /><stop
         offset="0.5005"
         style="stop-color:#D6E2F4"
         id="stop246" /><stop
         offset="0.501"
         style="stop-color:#D4E1F4"
         id="stop248" /><stop
         offset="0.7062"
         style="stop-color:#D4E1F4"
         id="stop250" /><stop
         offset="0.74"
         style="stop-color:#D4E1F4"
         id="stop252" /><stop
         offset="0.741"
         style="stop-color:#FFF5F4"
         id="stop254" /><stop
         offset="0.8346"
         style="stop-color:#FFF5F4"
         id="stop256" /><stop
         offset="0.85"
         style="stop-color:#FFF5F4"
         id="stop258" /><stop
         offset="0.851"
         style="stop-color:#D4E1F4"
         id="stop260" /></linearGradient><rect
       x="105.931"
       y="52.966"
       style="fill:url(#SVGID_1_)"
       width="300.138"
       height="406.069"
       id="rect77" /><ellipse
       style="fill:#7facfa"
       cx="339.862"
       cy="300.138"
       rx="48.551998"
       ry="44.138"
       id="ellipse79" /><ellipse
       style="fill:#a4c2f7"
       cx="326.621"
       cy="300.138"
       rx="35.310001"
       ry="44.138"
       id="ellipse81" /><ellipse
       style="fill:#7facfa"
       cx="172.138"
       cy="353.103"
       rx="48.551998"
       ry="44.138"
       id="ellipse83" /><ellipse
       style="fill:#a4c2f7"
       cx="158.897"
       cy="353.103"
       rx="35.310001"
       ry="44.138"
       id="ellipse85" /><g
       id="g113"><path
         inkscape:connector-curvature="0"
         style="fill:#428dff"
         d="M 326.621,467.862 H 79.448 c -2.341,10e-4 -4.587,-0.929 -6.243,-2.585 -1.656,-1.656 -2.585,-3.901 -2.585,-6.243 V 52.966 c -0.001,-2.341 0.929,-4.587 2.585,-6.243 1.656,-1.656 3.901,-2.585 6.243,-2.585 h 35.306 c 4.875,0 8.828,3.952 8.828,8.828 0,4.876 -3.952,8.828 -8.828,8.828 H 88.276 v 388.414 h 238.345 c 4.875,0 8.828,3.952 8.828,8.828 0,4.876 -3.953,8.826 -8.828,8.826 z"
         id="path87" /><path
         inkscape:connector-curvature="0"
         style="fill:#428dff"
         d="m 432.552,467.862 h -35.31 c -4.875,0 -8.828,-3.952 -8.828,-8.828 0,-4.876 3.952,-8.828 8.828,-8.828 h 26.483 V 61.793 H 185.379 c -4.875,0 -8.828,-3.952 -8.828,-8.828 0,-4.876 3.952,-8.828 8.828,-8.828 h 247.172 c 2.342,-10e-4 4.588,0.928 6.244,2.584 1.656,1.656 2.585,3.902 2.584,6.244 v 406.069 c 10e-4,2.342 -0.928,4.588 -2.584,6.244 -1.656,1.656 -3.902,2.585 -6.243,2.584 z"
         id="path89" /><path
         inkscape:connector-curvature="0"
         style="fill:#428dff"
         d="m 467.862,432.552 h -35.31 c -2.342,10e-4 -4.588,-0.928 -6.244,-2.584 -1.656,-1.656 -2.585,-3.902 -2.584,-6.244 V 88.276 c -10e-4,-2.342 0.928,-4.588 2.584,-6.244 1.656,-1.656 3.902,-2.585 6.244,-2.584 h 35.31 c 2.342,-10e-4 4.588,0.928 6.244,2.584 1.656,1.656 2.585,3.902 2.584,6.244 v 335.448 c 10e-4,2.342 -0.928,4.588 -2.584,6.244 -1.656,1.655 -3.902,2.585 -6.244,2.584 z m -26.483,-17.655 h 17.655 V 97.103 h -17.655 z"
         id="path91" /><path
         inkscape:connector-curvature="0"
         style="fill:#428dff"
         d="m 79.448,432.552 h -35.31 c -2.341,10e-4 -4.587,-0.929 -6.243,-2.585 -1.656,-1.656 -2.585,-3.901 -2.585,-6.243 V 88.276 c -0.001,-2.341 0.929,-4.587 2.585,-6.243 1.656,-1.656 3.901,-2.585 6.243,-2.585 h 35.31 c 2.341,-10e-4 4.587,0.929 6.243,2.585 1.656,1.656 2.585,3.901 2.585,6.243 v 335.448 c 0.001,2.341 -0.929,4.587 -2.585,6.243 -1.656,1.655 -3.901,2.585 -6.243,2.585 z M 52.966,414.897 H 70.621 V 97.103 H 52.966 Z"
         id="path93" /><path
         inkscape:connector-curvature="0"
         style="fill:#428dff"
         d="m 503.172,397.241 h -35.31 c -2.342,0.001 -4.588,-0.928 -6.244,-2.584 -1.656,-1.656 -2.585,-3.902 -2.584,-6.244 V 123.586 c -10e-4,-2.342 0.928,-4.588 2.584,-6.244 1.656,-1.656 3.902,-2.585 6.244,-2.584 h 35.31 c 2.342,-10e-4 4.588,0.928 6.244,2.584 1.656,1.656 2.585,3.902 2.584,6.244 v 264.828 c 10e-4,2.342 -0.928,4.588 -2.584,6.244 -1.656,1.655 -3.902,2.585 -6.244,2.583 z M 476.69,379.586 h 17.655 V 132.414 H 476.69 Z"
         id="path95" /><path
         inkscape:connector-curvature="0"
         style="fill:#428dff"
         d="M 44.138,397.241 H 8.828 C 6.487,397.242 4.241,396.312 2.585,394.656 0.929,393 0,390.755 0,388.413 V 123.586 c -0.001,-2.341 0.929,-4.587 2.585,-6.243 1.656,-1.656 3.901,-2.585 6.243,-2.585 h 35.31 c 2.341,-10e-4 4.587,0.929 6.243,2.585 1.656,1.656 2.585,3.901 2.585,6.243 v 264.828 c 10e-4,2.341 -0.929,4.587 -2.585,6.243 -1.656,1.655 -3.902,2.585 -6.243,2.584 z M 17.655,379.586 H 35.31 V 132.414 H 17.655 Z"
         id="path97" /><circle
         style="fill:#428dff"
         cx="150.069"
         cy="52.966"
         r="8.8280001"
         id="circle99" /><circle
         style="fill:#428dff"
         cx="361.931"
         cy="459.034"
         r="8.8280001"
         id="circle101" /><path
         inkscape:connector-curvature="0"
         style="fill:#428dff"
         d="m 220.69,203.034 c -4.873,-0.006 -8.822,-3.955 -8.828,-8.828 V 141.24 c -0.002,-4.344 3.161,-8.043 7.453,-8.715 l 167.724,-26.483 c 2.549,-0.401 5.146,0.333 7.108,2.009 1.962,1.676 3.093,4.126 3.095,6.707 v 52.966 c 0.002,4.344 -3.161,8.043 -7.453,8.715 l -167.724,26.483 c -0.455,0.076 -0.915,0.114 -1.375,0.112 z m 8.827,-54.25 v 35.095 l 150.069,-23.698 v -35.095 z"
         id="path103" /><path
         inkscape:connector-curvature="0"
         style="fill:#428dff"
         d="m 220.69,362.828 c -2.341,0.001 -4.587,-0.929 -6.243,-2.585 -1.656,-1.656 -2.585,-3.901 -2.585,-6.243 V 170.25 c 0,-4.875 3.952,-8.828 8.828,-8.828 4.876,0 8.828,3.952 8.828,8.828 V 354 c 0.001,2.341 -0.929,4.587 -2.585,6.243 -1.656,1.655 -3.902,2.585 -6.243,2.585 z"
         id="path105" /><path
         inkscape:connector-curvature="0"
         style="fill:#428dff"
         d="m 388.414,308.966 c -2.341,10e-4 -4.587,-0.929 -6.243,-2.585 -1.656,-1.656 -2.585,-3.901 -2.585,-6.243 V 123.586 c 0,-4.875 3.952,-8.828 8.828,-8.828 4.876,0 8.828,3.952 8.828,8.828 v 176.552 c 10e-4,2.341 -0.929,4.587 -2.585,6.243 -1.656,1.655 -3.902,2.585 -6.243,2.585 z"
         id="path107" /><path
         inkscape:connector-curvature="0"
         style="fill:#428dff"
         d="m 339.862,353.103 c -30.44,1.135 -56.079,-22.532 -57.379,-52.966 1.3,-30.433 26.94,-54.1 57.379,-52.966 30.44,-1.135 56.079,22.532 57.379,52.966 -1.3,30.434 -26.939,54.101 -57.379,52.966 z m 0,-88.275 c -20.687,-1.123 -38.414,14.634 -39.724,35.31 1.31,20.676 19.037,36.434 39.724,35.31 20.687,1.123 38.415,-14.634 39.724,-35.31 -1.309,-20.676 -19.037,-36.434 -39.724,-35.31 z"
         id="path109" /><path
         inkscape:connector-curvature="0"
         style="fill:#428dff"
         d="m 172.138,406.069 c -30.44,1.135 -56.079,-22.532 -57.379,-52.966 1.3,-30.433 26.94,-54.1 57.379,-52.966 30.44,-1.135 56.079,22.532 57.379,52.966 -1.3,30.434 -26.939,54.1 -57.379,52.966 z m 0,-88.276 c -20.687,-1.123 -38.414,14.634 -39.724,35.31 1.31,20.676 19.037,36.434 39.724,35.31 20.687,1.123 38.414,-14.634 39.724,-35.31 -1.31,-20.676 -19.037,-36.433 -39.724,-35.31 z"
         id="path111" /></g></g></svg>