<?xml version="1.0" encoding="UTF-8" standalone="no"?>
<!-- Generator: Adobe Illustrator 19.0.0, SVG Export Plug-In . SVG Version: 6.00 Build 0)  -->

<svg
   xmlns:dc="http://purl.org/dc/elements/1.1/"
   xmlns:cc="http://creativecommons.org/ns#"
   xmlns:rdf="http://www.w3.org/1999/02/22-rdf-syntax-ns#"
   xmlns:svg="http://www.w3.org/2000/svg"
   xmlns="http://www.w3.org/2000/svg"
   xmlns:sodipodi="http://sodipodi.sourceforge.net/DTD/sodipodi-0.dtd"
   xmlns:inkscape="http://www.inkscape.org/namespaces/inkscape"
   version="1.1"
   id="Capa_1"
   x="0px"
   y="0px"
   viewBox="0 0 58 58"
   xml:space="preserve"
   sodipodi:docname="icon_2.svg"
   inkscape:version="0.92.1 r15371"
   style="enable-background:new 0 0 58 58;"><metadata
     id="metadata53"><rdf:RDF><cc:Work
         rdf:about=""><dc:format>image/svg+xml</dc:format><dc:type
           rdf:resource="http://purl.org/dc/dcmitype/StillImage" /><dc:title></dc:title></cc:Work></rdf:RDF></metadata><defs
     id="defs51" /><sodipodi:namedview
     pagecolor="#ffffff"
     bordercolor="#666666"
     borderopacity="1"
     objecttolerance="10"
     gridtolerance="10"
     guidetolerance="10"
     inkscape:pageopacity="0"
     inkscape:pageshadow="2"
     inkscape:window-width="1360"
     inkscape:window-height="705"
     id="namedview49"
     showgrid="false"
     inkscape:zoom="4.0689655"
     inkscape:cx="9.4817672"
     inkscape:cy="-2.6016945"
     inkscape:window-x="1358"
     inkscape:window-y="-8"
     inkscape:window-maximized="1"
     inkscape:current-layer="Capa_1" /><g
     id="g18" /><g
     id="g20" /><g
     id="g22" /><g
     id="g24" /><g
     id="g26" /><g
     id="g28" /><g
     id="g30" /><g
     id="g32" /><g
     id="g34" /><g
     id="g36" /><g
     id="g38" /><g
     id="g40" /><g
     id="g42" /><g
     id="g44" /><g
     id="g46" /><g
     transform="matrix(0.66666667,0,0,0.625,9,10.25)"
     id="g49"><path
       d="m 43.844,13.013 -19,3 C 24.358,16.089 24,16.508 24,17 V 20.286 23 36.68 C 22.831,35.642 21.246,35 19.5,35 15.916,35 13,37.691 13,41 c 0,3.309 2.916,6 6.5,6 3.533,0 6.411,-2.617 6.492,-5.861 C 25.993,41.126 26,41.115 26,41.102 V 23.854 L 43,21.17 v 9.511 C 41.831,29.642 40.246,29 38.5,29 34.916,29 32,31.691 32,35 c 0,3.309 2.916,6 6.5,6 3.584,0 6.5,-2.691 6.5,-6 V 20 15 14 c 0,-0.292 -0.128,-0.57 -0.351,-0.76 -0.222,-0.19 -0.515,-0.273 -0.805,-0.227 z M 19.5,45 C 17.019,45 15,43.206 15,41 c 0,-2.206 2.019,-4 4.5,-4 2.481,0 4.5,1.794 4.5,4 0,2.206 -2.019,4 -4.5,4 z M 26,21.83 v -1.544 -2.432 l 17,-2.685 v 3.976 z M 38.5,39 C 36.019,39 34,37.206 34,35 c 0,-2.206 2.019,-4 4.5,-4 2.481,0 4.5,1.794 4.5,4 0,2.206 -2.019,4 -4.5,4 z"
       id="path2"
       inkscape:connector-curvature="0" /><path
       d="M 60,14 H 56 V 10 H 52 V 6 H 8 v 4 H 4 v 4 H 0 v 32 h 4 v 4 h 4 v 4 h 44 v -4 h 4 v -4 h 4 z M 2,44 V 16 h 2 v 28 z m 4,4 V 46 14 12 h 2 v 36 z m 44,4 H 10 V 50 10 8 h 40 v 2 40 z m 4,-4 H 52 V 12 h 2 v 2 32 z m 4,-4 H 56 V 16 h 2 z"
       id="path4"
       inkscape:connector-curvature="0" /></g></svg>